<svg width="244" height="27" viewBox="0 0 163 18" fill="none" xmlns="http://www.w3.org/2000/svg">
<g clip-path="url(#clip0_170_2005)">
<path d="M20.4451 7.61986V5.13258C20.4449 4.58781 20.3288 4.04945 20.1047 3.55406C19.8806 3.05868 19.5536 2.61788 19.1461 2.26161L17.6104 0.907376C16.9243 0.320654 16.0538 0.000547266 15.1553 0.00455376H2.03558C1.49571 0.00455376 0.97795 0.221421 0.596205 0.607452C0.214459 0.993484 0 1.51706 0 2.06299V6.75766C0.00117717 6.89336 0.0553139 7.0231 0.150623 7.11863C0.245932 7.21416 0.374697 7.26776 0.508895 7.26776H2.35699C2.49118 7.26895 2.61948 7.32369 2.71395 7.42007C2.80842 7.51645 2.86143 7.64666 2.86142 7.78236V9.64669C2.86026 9.78162 2.80673 9.91068 2.71238 10.0061C2.61804 10.1015 2.49041 10.1556 2.35699 10.1568H0.508895C0.374697 10.1568 0.245932 10.2104 0.150623 10.3059C0.0553139 10.4014 0.00117717 10.5312 0 10.6669V17.4155H18.4274C19.7245 17.4301 20.9788 16.9467 21.9373 16.0629C22.8958 15.179 23.4872 13.9605 23.5922 12.6531C23.657 11.5862 23.3879 10.5257 22.823 9.62219C22.2581 8.7187 21.4261 8.0181 20.4451 7.61986ZM2.87481 2.90712H15.1597C15.3699 2.90685 15.573 2.98387 15.7311 3.12381L17.2667 4.47804C17.3622 4.56173 17.439 4.66495 17.4921 4.7809C17.5452 4.89684 17.5734 5.02287 17.5747 5.15064V7.27227H3.37925C3.24505 7.27108 3.11675 7.21634 3.02228 7.11996C2.92781 7.02358 2.87481 6.89336 2.87481 6.75766V2.90712ZM18.4988 14.5039H2.87481V10.6714C2.87481 10.5357 2.92781 10.4055 3.02228 10.3091C3.11675 10.2127 3.24505 10.158 3.37925 10.1568H18.5568C18.8572 10.1572 19.1542 10.2212 19.4287 10.3446C19.7031 10.4681 19.949 10.6483 20.1504 10.8737C20.3518 11.0991 20.5044 11.3646 20.5982 11.6532C20.692 11.9418 20.725 12.247 20.6951 12.5493C20.6227 13.0902 20.359 13.5863 19.9527 13.9456C19.5465 14.305 19.0252 14.5033 18.4854 14.5039H18.4988Z" fill="black"/>
<path d="M107.542 3.37654V0.473969H88.0656C87.5265 0.473967 87.0094 0.69022 86.6278 1.07528C86.2462 1.46033 86.0312 1.98274 86.03 2.52789V15.8265C86.0312 16.3716 86.2462 16.894 86.6278 17.2791C87.0094 17.6641 87.5265 17.8804 88.0656 17.8804H107.542V14.9778H88.9048V10.3644H107.542V7.4573H88.9048V3.3946L107.542 3.37654Z" fill="black"/>
<path d="M59.0051 0.473988H48.9566C48.89 0.473392 48.824 0.486147 48.7622 0.511514C48.7005 0.536882 48.6444 0.574365 48.5971 0.621791C48.5498 0.669217 48.5122 0.725649 48.4866 0.787833C48.4609 0.850016 48.4478 0.916717 48.4478 0.984085V2.33832C48.4479 2.41079 48.4259 2.48154 48.3849 2.54091C48.3438 2.60029 48.2856 2.6454 48.2182 2.67008C48.1508 2.69477 48.0775 2.69783 48.0084 2.67885C47.9392 2.65987 47.8775 2.61977 47.8317 2.56402L47.1666 1.74697C46.8485 1.35842 46.4495 1.04569 45.9981 0.831103C45.5467 0.616515 45.054 0.505363 44.5552 0.505591H36.3191V3.40816H44.5418C44.6169 3.40904 44.691 3.42645 44.7588 3.45919C44.8267 3.49193 44.8866 3.53921 44.9346 3.59775L46.4657 5.47562C46.542 5.568 46.5831 5.68484 46.5818 5.80515V17.9933H49.4566V5.7871C49.4575 4.99089 49.1827 4.21949 48.6799 3.60678C48.6625 3.58436 48.6516 3.55748 48.6484 3.52914C48.6452 3.5008 48.65 3.47213 48.662 3.44635C48.6741 3.42057 48.693 3.3987 48.7166 3.38318C48.7403 3.36767 48.7678 3.35912 48.796 3.3585H58.9872L59.0051 0.473988Z" fill="black"/>
<path d="M83.1241 17.8804H64.1164C63.5801 17.8804 63.0658 17.6649 62.6865 17.2815C62.3073 16.898 62.0942 16.3778 62.0942 15.8355V0.442383H64.9646V14.9778H83.1241V17.8804Z" fill="black"/>
<path d="M160.565 17.8804H141.116C140.577 17.8804 140.059 17.6641 139.678 17.2791C139.296 16.894 139.081 16.3716 139.08 15.8265V2.52789C139.081 1.98274 139.296 1.46033 139.678 1.07528C140.059 0.690223 140.577 0.47397 141.116 0.473971H154.923C156.125 0.472693 157.286 0.917615 158.186 1.72438L161.311 4.5457C161.828 5.01106 162.242 5.58184 162.526 6.22057C162.81 6.85929 162.957 7.55152 162.958 8.25179V15.4428C162.959 16.0865 162.708 16.7045 162.26 17.1614C161.811 17.6183 161.202 17.8768 160.565 17.8804ZM141.955 14.9778H160.092V8.26081C160.091 7.97014 160.03 7.68287 159.913 7.41767C159.795 7.15247 159.623 6.91528 159.409 6.7215L156.284 3.90019C155.916 3.56695 155.44 3.38081 154.945 3.37655H141.955V14.9778Z" fill="black"/>
<path d="M32.5648 17.9752H29.6945V3.37655H29.3909L26.4581 4.85265L25.1814 2.25253L28.3687 0.645507C28.5965 0.532509 28.847 0.473826 29.1008 0.473969H31.0114C31.4234 0.473969 31.8185 0.639476 32.1098 0.934079C32.4012 1.22868 32.5648 1.62825 32.5648 2.04488V17.9752Z" fill="black"/>
<path d="M132.259 0.442383V16.4359L122.952 2.89354C122.443 2.1503 121.763 1.54309 120.97 1.12402C120.178 0.704955 119.297 0.486537 118.403 0.48752H114.685C114.551 0.48752 114.422 0.541266 114.328 0.636927C114.233 0.732588 114.18 0.862331 114.18 0.997616V2.87549C114.179 3.01041 114.125 3.13947 114.031 3.23488C113.937 3.33028 113.809 3.3844 113.676 3.38558H111.819C111.685 3.38558 111.557 3.43932 111.462 3.53499C111.367 3.63065 111.314 3.76039 111.314 3.89567V17.8894H114.185V3.89567C114.185 3.75919 114.238 3.6283 114.334 3.53179C114.429 3.43528 114.558 3.38107 114.693 3.38107H118.403C118.833 3.38273 119.256 3.48902 119.637 3.69094C120.018 3.89287 120.345 4.1845 120.59 4.5412L129.518 17.5328C129.593 17.6419 129.694 17.7309 129.81 17.7922C129.927 17.8536 130.057 17.8854 130.188 17.8849H134.331C134.546 17.8849 134.753 17.7983 134.905 17.6443C135.057 17.4902 135.143 17.2812 135.143 17.0633V0.442383H132.259Z" fill="black"/>
</g>
<defs>
<clipPath id="clip0_170_2005">
<rect width="163" height="18" fill="white"/>
</clipPath>
</defs>
</svg>
