<svg width="24" height="18" viewBox="0 0 24 18" fill="none" xmlns="http://www.w3.org/2000/svg">
<path d="M20.4451 7.61986V5.13258C20.4449 4.58781 20.3289 4.04945 20.1047 3.55406C19.8806 3.05868 19.5536 2.61788 19.1461 2.26161L17.6104 0.907376C16.9243 0.320654 16.0538 0.000547266 15.1553 0.00455376H2.03558C1.49571 0.00455376 0.97795 0.221421 0.596205 0.607452C0.214459 0.993484 0 1.51706 0 2.06299V6.75766C0.00117717 6.89336 0.0553139 7.0231 0.150623 7.11863C0.245932 7.21416 0.374697 7.26776 0.508895 7.26776H2.35699C2.49118 7.26895 2.61948 7.32369 2.71395 7.42007C2.80842 7.51645 2.86143 7.64666 2.86142 7.78236V9.64669C2.86026 9.78162 2.80673 9.91067 2.71238 10.0061C2.61804 10.1015 2.49041 10.1556 2.35699 10.1568H0.508895C0.374697 10.1568 0.245932 10.2104 0.150623 10.3059C0.0553139 10.4014 0.00117717 10.5312 0 10.6669V17.4155H18.4274C19.7245 17.4301 20.9788 16.9467 21.9373 16.0629C22.8958 15.179 23.4872 13.9605 23.5922 12.6531C23.657 11.5862 23.3879 10.5257 22.823 9.62219C22.2581 8.7187 21.4261 8.0181 20.4451 7.61986ZM2.87481 2.90712H15.1597C15.3699 2.90685 15.573 2.98387 15.7311 3.12381L17.2667 4.47804C17.3622 4.56173 17.439 4.66495 17.4921 4.7809C17.5452 4.89684 17.5734 5.02287 17.5747 5.15064V7.27227H3.37925C3.24505 7.27108 3.11675 7.21634 3.02228 7.11996C2.92781 7.02358 2.87481 6.89336 2.87481 6.75766V2.90712ZM18.4988 14.5039H2.87481V10.6714C2.87481 10.5357 2.92781 10.4055 3.02228 10.3091C3.11675 10.2127 3.24505 10.158 3.37925 10.1568H18.5568C18.8572 10.1572 19.1542 10.2212 19.4287 10.3446C19.7031 10.4681 19.949 10.6483 20.1504 10.8737C20.3518 11.0991 20.5044 11.3646 20.5982 11.6532C20.692 11.9418 20.725 12.247 20.6951 12.5493C20.6227 13.0902 20.359 13.5863 19.9527 13.9456C19.5465 14.305 19.0252 14.5033 18.4854 14.5039H18.4988Z" fill="white"/>
</svg>
